<?xml version="1.0" encoding="UTF-8"?>
<!DOCTYPE svg PUBLIC "-//W3C//DTD SVG 1.1//EN" "http://www.w3.org/Graphics/SVG/1.1/DTD/svg11.dtd">
<svg xmlns="http://www.w3.org/2000/svg" version="1.1" width="580px" height="318px" style="shape-rendering:geometricPrecision; text-rendering:geometricPrecision; image-rendering:optimizeQuality; fill-rule:evenodd; clip-rule:evenodd" xmlns:xlink="http://www.w3.org/1999/xlink">
<g><path style="opacity:1" fill="#e7f7ef" d="M -0.5,-0.5 C 192.833,-0.5 386.167,-0.5 579.5,-0.5C 579.5,105.5 579.5,211.5 579.5,317.5C 386.167,317.5 192.833,317.5 -0.5,317.5C -0.5,211.5 -0.5,105.5 -0.5,-0.5 Z"/></g>
<g><path style="opacity:1" fill="#84adde" d="M 261.5,73.5 C 274.538,72.1823 283.205,77.6823 287.5,90C 282.758,92.1196 278.258,94.6196 274,97.5C 273.167,102 275,103.833 279.5,103C 283.167,101.167 286.833,99.3333 290.5,97.5C 292.87,99.6883 293.537,102.188 292.5,105C 288.423,106.787 284.59,108.954 281,111.5C 279.859,114.857 281.025,116.857 284.5,117.5C 288.948,115.776 293.281,113.776 297.5,111.5C 299.87,113.688 300.537,116.188 299.5,119C 295.423,120.787 291.59,122.954 288,125.5C 286.859,128.857 288.025,130.857 291.5,131.5C 295.948,129.776 300.281,127.776 304.5,125.5C 313.435,137.739 312.268,148.739 301,158.5C 300.667,152.833 300.333,147.167 300,141.5C 294.924,136.244 289.924,136.244 285,141.5C 284.501,147.491 284.334,153.491 284.5,159.5C 280.464,158.98 277.297,156.98 275,153.5C 273.364,150.394 271.864,147.227 270.5,144C 273.569,140.952 277.235,138.619 281.5,137C 284.833,132 283.5,129.667 277.5,130C 273.905,131.713 270.405,133.547 267,135.5C 264.245,133.519 263.412,131.019 264.5,128C 268.577,126.213 272.41,124.046 276,121.5C 276.833,117 275,115.167 270.5,116C 266.905,117.713 263.405,119.547 260,121.5C 257.245,119.519 256.412,117.019 257.5,114C 261.577,112.213 265.41,110.046 269,107.5C 269.833,103 268,101.167 263.5,102C 259.905,103.713 256.405,105.547 253,107.5C 246.89,99.8879 245.89,91.5545 250,82.5C 253.161,78.4905 256.994,75.4905 261.5,73.5 Z"/></g>
<g><path style="opacity:1" fill="#86aede" d="M 289.5,141.5 C 292.044,141.104 294.211,141.771 296,143.5C 296.667,152.167 296.667,160.833 296,169.5C 293.667,172.167 291.333,172.167 289,169.5C 288.195,160.089 288.362,150.756 289.5,141.5 Z"/></g>
<g><path style="opacity:1" fill="#83acde" d="M 288.5,178.5 C 290.833,178.5 293.167,178.5 295.5,178.5C 295.5,183.5 295.5,188.5 295.5,193.5C 293.167,193.5 290.833,193.5 288.5,193.5C 288.5,188.5 288.5,183.5 288.5,178.5 Z"/></g>
<g><path style="opacity:1" fill="#9dc0e3" d="M 288.5,178.5 C 290.948,177.527 293.615,177.194 296.5,177.5C 296.821,183.026 296.488,188.36 295.5,193.5C 295.5,188.5 295.5,183.5 295.5,178.5C 293.167,178.5 290.833,178.5 288.5,178.5 Z"/></g>
<g><path style="opacity:1" fill="#d8eced" d="M 296.5,177.5 C 297.461,179.265 297.795,181.265 297.5,183.5C 303.34,183.352 308.673,184.685 313.5,187.5C 309.454,187.048 305.454,186.381 301.5,185.5C 300.791,184.596 299.791,184.263 298.5,184.5C 298.5,188.5 298.5,192.5 298.5,196.5C 295.296,195.011 291.963,194.011 288.5,193.5C 290.833,193.5 293.167,193.5 295.5,193.5C 296.488,188.36 296.821,183.026 296.5,177.5 Z"/></g>
<g><path style="opacity:1" fill="#83acde" d="M 257.5,190.5 C 259.102,188.926 261.102,188.259 263.5,188.5C 266.187,188.664 268.854,188.497 271.5,188C 272.416,187.722 273.082,187.222 273.5,186.5C 274.5,186.5 275.5,186.5 276.5,186.5C 279.482,186.037 282.482,185.704 285.5,185.5C 285.5,188.833 285.5,192.167 285.5,195.5C 276.167,195.5 266.833,195.5 257.5,195.5C 257.5,193.833 257.5,192.167 257.5,190.5 Z"/></g>
<g><path style="opacity:1" fill="#82abde" d="M 301.5,185.5 C 305.454,186.381 309.454,187.048 313.5,187.5C 314.167,187.5 314.833,187.5 315.5,187.5C 317.515,188.924 319.848,189.59 322.5,189.5C 324.415,189.216 326.081,189.549 327.5,190.5C 327.5,192.167 327.5,193.833 327.5,195.5C 318.167,195.5 308.833,195.5 299.5,195.5C 298.931,191.671 299.598,188.337 301.5,185.5 Z"/></g>
<g><path style="opacity:1" fill="#afcde6" d="M 273.5,186.5 C 273.082,187.222 272.416,187.722 271.5,188C 268.854,188.497 266.187,188.664 263.5,188.5C 266.627,187.419 269.96,186.753 273.5,186.5 Z"/></g>
<g><path style="opacity:1" fill="#aecce6" d="M 315.5,187.5 C 318.152,187.41 320.485,188.076 322.5,189.5C 319.848,189.59 317.515,188.924 315.5,187.5 Z"/></g>
<g><path style="opacity:1" fill="#abcae5" d="M 257.5,190.5 C 257.5,192.167 257.5,193.833 257.5,195.5C 266.833,195.5 276.167,195.5 285.5,195.5C 285.5,192.167 285.5,188.833 285.5,185.5C 282.482,185.704 279.482,186.037 276.5,186.5C 279.507,184.825 282.84,184.159 286.5,184.5C 286.5,188.5 286.5,192.5 286.5,196.5C 276.5,196.5 266.5,196.5 256.5,196.5C 256.205,194.265 256.539,192.265 257.5,190.5 Z"/></g>
<g><path style="opacity:1" fill="#a9c8e4" d="M 301.5,185.5 C 299.598,188.337 298.931,191.671 299.5,195.5C 308.833,195.5 318.167,195.5 327.5,195.5C 327.5,193.833 327.5,192.167 327.5,190.5C 328.461,192.265 328.795,194.265 328.5,196.5C 318.5,196.5 308.5,196.5 298.5,196.5C 298.5,192.5 298.5,188.5 298.5,184.5C 299.791,184.263 300.791,184.596 301.5,185.5 Z"/></g>
<g><path style="opacity:1" fill="#db9395" d="M 88.5,210.5 C 93.9605,210.211 98.9605,211.544 103.5,214.5C 102.752,216.332 101.752,217.999 100.5,219.5C 96.8772,216.999 93.0439,216.333 89,217.5C 88.2195,218.944 88.3861,220.277 89.5,221.5C 92.9897,223.455 96.6564,224.955 100.5,226C 103.428,229.257 104.262,233.091 103,237.5C 95.2021,244.133 87.3688,244.133 79.5,237.5C 79.953,235.435 80.953,233.768 82.5,232.5C 86.4585,236.228 90.9585,237.228 96,235.5C 96.7203,233.888 96.5536,232.388 95.5,231C 92.5597,229.848 89.5597,228.848 86.5,228C 81.8451,225.103 80.3451,220.937 82,215.5C 83.9651,213.45 86.1318,211.783 88.5,210.5 Z"/></g>
<g><path style="opacity:1" fill="#81abde" d="M 107.5,211.5 C 115.5,211.5 123.5,211.5 131.5,211.5C 131.5,213.167 131.5,214.833 131.5,216.5C 123.5,216.5 115.5,216.5 107.5,216.5C 107.5,214.833 107.5,213.167 107.5,211.5 Z"/></g>
<g><path style="opacity:1" fill="#db9495" d="M 144.5,211.5 C 162.421,209.578 169.588,217.245 166,234.5C 155.562,245.448 145.562,245.115 136,233.5C 132.665,223.657 135.499,216.324 144.5,211.5 Z"/></g>
<g><path style="opacity:1" fill="#deacac" d="M 173.5,211.5 C 173.5,221.5 173.5,231.5 173.5,241.5C 175.5,241.5 177.5,241.5 179.5,241.5C 177.393,242.468 175.059,242.802 172.5,242.5C 172.172,231.986 172.506,221.653 173.5,211.5 Z"/></g>
<g><path style="opacity:1" fill="#db9193" d="M 173.5,211.5 C 179.176,211.334 184.843,211.501 190.5,212C 192.081,212.707 193.581,213.54 195,214.5C 196.52,218.375 196.854,222.375 196,226.5C 194.58,228.444 193.08,230.277 191.5,232C 193.045,234.927 194.712,237.76 196.5,240.5C 194.393,241.468 192.059,241.802 189.5,241.5C 187.592,238.688 185.925,235.688 184.5,232.5C 182.955,231.548 181.288,231.215 179.5,231.5C 179.5,234.833 179.5,238.167 179.5,241.5C 177.5,241.5 175.5,241.5 173.5,241.5C 173.5,231.5 173.5,221.5 173.5,211.5 Z"/></g>
<g><path style="opacity:1" fill="#db9193" d="M 215.5,231.5 C 215.5,234.833 215.5,238.167 215.5,241.5C 213.5,241.5 211.5,241.5 209.5,241.5C 209.665,238.15 209.498,234.817 209,231.5C 205.833,225.167 202.667,218.833 199.5,212.5C 201.695,211.231 203.861,211.231 206,212.5C 209.705,218.577 212.872,224.91 215.5,231.5 Z"/></g>
<g><path style="opacity:1" fill="#db9395" d="M 219.5,211.5 C 221.857,211.337 224.19,211.503 226.5,212C 224.033,217.108 221.2,221.942 218,226.5C 216.008,225.771 215.174,224.271 215.5,222C 216.153,218.202 217.486,214.702 219.5,211.5 Z"/></g>
<g><path style="opacity:1" fill="#db9394" d="M 257.5,240.5 C 255.735,241.461 253.735,241.795 251.5,241.5C 247.935,231.64 244.268,221.806 240.5,212C 242.902,211.186 245.235,211.353 247.5,212.5C 251.038,221.781 254.371,231.114 257.5,240.5 Z"/></g>
<g><path style="opacity:1" fill="#db9495" d="M 262.5,211.5 C 264.833,211.5 267.167,211.5 269.5,211.5C 266.89,220.052 263.723,228.385 260,236.5C 258.203,235.073 257.036,233.24 256.5,231C 258.81,224.572 260.81,218.072 262.5,211.5 Z"/></g>
<g><path style="opacity:1" fill="#dfb2b0" d="M 274.5,211.5 C 274.5,221.5 274.5,231.5 274.5,241.5C 276.5,241.5 278.5,241.5 280.5,241.5C 278.393,242.468 276.059,242.802 273.5,242.5C 273.172,231.986 273.506,221.653 274.5,211.5 Z"/></g>
<g><path style="opacity:1" fill="#da9091" d="M 274.5,211.5 C 276.5,211.5 278.5,211.5 280.5,211.5C 280.5,221.5 280.5,231.5 280.5,241.5C 278.5,241.5 276.5,241.5 274.5,241.5C 274.5,231.5 274.5,221.5 274.5,211.5 Z"/></g>
<g><path style="opacity:1" fill="#db9395" d="M 294.5,210.5 C 299.961,210.211 304.961,211.544 309.5,214.5C 308.752,216.332 307.752,217.999 306.5,219.5C 302.877,216.999 299.044,216.333 295,217.5C 294.28,219.112 294.446,220.612 295.5,222C 299.09,223.53 302.757,224.864 306.5,226C 309.428,229.257 310.262,233.091 309,237.5C 300.991,244.268 293.158,244.101 285.5,237C 285.888,235.049 286.888,233.549 288.5,232.5C 292.458,236.228 296.958,237.228 302,235.5C 302.72,233.888 302.554,232.388 301.5,231C 296.406,229.974 291.906,227.807 288,224.5C 287.333,221.5 287.333,218.5 288,215.5C 289.965,213.45 292.132,211.783 294.5,210.5 Z"/></g>
<g><path style="opacity:1" fill="#db9293" d="M 314.5,211.5 C 316.833,211.5 319.167,211.5 321.5,211.5C 321.334,218.508 321.5,225.508 322,232.5C 326.421,238.086 330.421,237.753 334,231.5C 334.5,224.842 334.666,218.175 334.5,211.5C 336.5,211.5 338.5,211.5 340.5,211.5C 340.666,219.174 340.5,226.841 340,234.5C 334.999,242.74 328.166,244.573 319.5,240C 317.951,238.786 316.785,237.286 316,235.5C 314.599,227.585 314.099,219.585 314.5,211.5 Z"/></g>
<g><path style="opacity:1" fill="#db9394" d="M 373.5,239.5 C 372.082,241.308 370.082,241.975 367.5,241.5C 364.89,234.001 361.89,226.667 358.5,219.5C 355.437,226.358 352.77,233.358 350.5,240.5C 348.059,241.756 345.726,241.756 343.5,240.5C 347.154,231.188 350.82,221.855 354.5,212.5C 357.372,211.217 360.205,211.217 363,212.5C 366.801,221.406 370.301,230.406 373.5,239.5 Z"/></g>
<g><path style="opacity:1" fill="#e2ccc8" d="M 378.5,211.5 C 378.5,221.5 378.5,231.5 378.5,241.5C 384.833,241.5 391.167,241.5 397.5,241.5C 391.021,242.491 384.354,242.824 377.5,242.5C 377.172,231.986 377.506,221.653 378.5,211.5 Z"/></g>
<g><path style="opacity:1" fill="#db9395" d="M 378.5,211.5 C 380.833,211.5 383.167,211.5 385.5,211.5C 385.5,219.833 385.5,228.167 385.5,236.5C 389.5,236.5 393.5,236.5 397.5,236.5C 397.5,238.167 397.5,239.833 397.5,241.5C 391.167,241.5 384.833,241.5 378.5,241.5C 378.5,231.5 378.5,221.5 378.5,211.5 Z"/></g>
<g><path style="opacity:1" fill="#da9091" d="M 407.5,211.5 C 407.5,221.5 407.5,231.5 407.5,241.5C 405.5,241.5 403.5,241.5 401.5,241.5C 401.5,231.5 401.5,221.5 401.5,211.5C 403.5,211.5 405.5,211.5 407.5,211.5 Z"/></g>
<g><path style="opacity:1" fill="#deacab" d="M 407.5,211.5 C 408.494,221.653 408.828,231.986 408.5,242.5C 405.941,242.802 403.607,242.468 401.5,241.5C 403.5,241.5 405.5,241.5 407.5,241.5C 407.5,231.5 407.5,221.5 407.5,211.5 Z"/></g>
<g><path style="opacity:1" fill="#db9092" d="M 413.5,211.5 C 418.544,211.173 423.544,211.506 428.5,212.5C 427.96,213.748 427.293,214.915 426.5,216C 422.179,216.499 417.846,216.666 413.5,216.5C 413.5,214.833 413.5,213.167 413.5,211.5 Z"/></g>
<g><path style="opacity:1" fill="#db9294" d="M 438.5,241.5 C 430.167,241.5 421.833,241.5 413.5,241.5C 413.5,239.833 413.5,238.167 413.5,236.5C 419.81,228.519 426.143,220.519 432.5,212.5C 434.396,211.534 436.396,211.201 438.5,211.5C 438.66,213.199 438.494,214.866 438,216.5C 432.833,222.833 427.667,229.167 422.5,235.5C 427.792,236.495 433.125,236.828 438.5,236.5C 438.5,238.167 438.5,239.833 438.5,241.5 Z"/></g>
<g><path style="opacity:1" fill="#e0bdba" d="M 443.5,211.5 C 443.5,221.5 443.5,231.5 443.5,241.5C 450.833,241.5 458.167,241.5 465.5,241.5C 465.5,239.833 465.5,238.167 465.5,236.5C 466.461,238.265 466.795,240.265 466.5,242.5C 458.5,242.5 450.5,242.5 442.5,242.5C 442.172,231.986 442.506,221.653 443.5,211.5 Z"/></g>
<g><path style="opacity:1" fill="#da9091" d="M 443.5,211.5 C 450.833,211.5 458.167,211.5 465.5,211.5C 465.5,213.167 465.5,214.833 465.5,216.5C 460.167,216.5 454.833,216.5 449.5,216.5C 449.176,223.354 449.509,230.021 450.5,236.5C 455.5,236.5 460.5,236.5 465.5,236.5C 465.5,238.167 465.5,239.833 465.5,241.5C 458.167,241.5 450.833,241.5 443.5,241.5C 443.5,231.5 443.5,221.5 443.5,211.5 Z"/></g>
<g><path style="opacity:1" fill="#db9193" d="M 494.5,240.5 C 492.393,241.468 490.059,241.802 487.5,241.5C 486.071,238.304 484.405,235.304 482.5,232.5C 481.081,231.549 479.415,231.216 477.5,231.5C 477.5,234.833 477.5,238.167 477.5,241.5C 475.5,241.5 473.5,241.5 471.5,241.5C 471.5,231.5 471.5,221.5 471.5,211.5C 477.176,211.334 482.843,211.501 488.5,212C 494.469,214.103 496.636,218.27 495,224.5C 494.089,227.576 492.256,229.909 489.5,231.5C 491.432,234.366 493.099,237.366 494.5,240.5 Z"/></g>
<g><path style="opacity:1" fill="#e7f5ee" d="M 146.5,217.5 C 157.157,215.658 161.657,219.991 160,230.5C 154.789,237.939 149.122,238.273 143,231.5C 140.432,225.909 141.599,221.243 146.5,217.5 Z"/></g>
<g><path style="opacity:1" fill="#e7f2ea" d="M 179.5,216.5 C 183.257,216.071 186.757,216.737 190,218.5C 190.839,221.14 190.339,223.473 188.5,225.5C 185.579,226.407 182.579,226.74 179.5,226.5C 179.5,223.167 179.5,219.833 179.5,216.5 Z"/></g>
<g><path style="opacity:1" fill="#e3d3cf" d="M 465.5,216.5 C 460.695,217.487 455.695,217.821 450.5,217.5C 450.5,223.833 450.5,230.167 450.5,236.5C 449.509,230.021 449.176,223.354 449.5,216.5C 454.833,216.5 460.167,216.5 465.5,216.5 Z"/></g>
<g><path style="opacity:1" fill="#e2cecb" d="M 485.5,217.5 C 483.167,217.5 480.833,217.5 478.5,217.5C 478.5,220.167 478.5,222.833 478.5,225.5C 480.833,225.5 483.167,225.5 485.5,225.5C 483.052,226.473 480.385,226.806 477.5,226.5C 477.5,223.167 477.5,219.833 477.5,216.5C 480.385,216.194 483.052,216.527 485.5,217.5 Z"/></g>
<g><path style="opacity:1" fill="#e7f6ef" d="M 485.5,217.5 C 487.89,217.685 488.89,219.018 488.5,221.5C 488.89,223.982 487.89,225.315 485.5,225.5C 483.167,225.5 480.833,225.5 478.5,225.5C 478.5,222.833 478.5,220.167 478.5,217.5C 480.833,217.5 483.167,217.5 485.5,217.5 Z"/></g>
<g><path style="opacity:1" fill="#db9092" d="M 121.5,219.5 C 122.464,226.746 122.797,234.08 122.5,241.5C 120.5,241.5 118.5,241.5 116.5,241.5C 116.5,234.5 116.5,227.5 116.5,220.5C 117.919,219.549 119.585,219.216 121.5,219.5 Z"/></g>
<g><path style="opacity:1" fill="#e0bab8" d="M 116.5,220.5 C 116.5,227.5 116.5,234.5 116.5,241.5C 118.5,241.5 120.5,241.5 122.5,241.5C 122.5,241.833 122.5,242.167 122.5,242.5C 120.167,242.5 117.833,242.5 115.5,242.5C 115.175,234.981 115.508,227.648 116.5,220.5 Z"/></g>
<g><path style="opacity:1" fill="#e4d9d4" d="M 121.5,219.5 C 122.823,222.938 123.49,226.771 123.5,231C 123.499,235.015 123.165,238.849 122.5,242.5C 122.5,242.167 122.5,241.833 122.5,241.5C 122.797,234.08 122.464,226.746 121.5,219.5 Z"/></g>
<g><path style="opacity:1" fill="#dfbab8" d="M 463.5,229.5 C 463.5,227.833 463.5,226.167 463.5,224.5C 460.391,224.264 457.391,224.597 454.5,225.5C 457.337,223.598 460.671,222.931 464.5,223.5C 464.795,225.735 464.461,227.735 463.5,229.5 Z"/></g>
<g><path style="opacity:1" fill="#db9092" d="M 463.5,229.5 C 460.5,229.5 457.5,229.5 454.5,229.5C 454.5,228.167 454.5,226.833 454.5,225.5C 457.391,224.597 460.391,224.264 463.5,224.5C 463.5,226.167 463.5,227.833 463.5,229.5 Z"/></g>
<g><path style="opacity:1" fill="#dfb3b2" d="M 215.5,231.5 C 216.482,234.962 216.815,238.629 216.5,242.5C 213.941,242.802 211.607,242.468 209.5,241.5C 211.5,241.5 213.5,241.5 215.5,241.5C 215.5,238.167 215.5,234.833 215.5,231.5 Z"/></g>
<g><path style="opacity:1" fill="#e2c6c3" d="M 482.5,232.5 C 481.167,232.5 479.833,232.5 478.5,232.5C 478.81,235.713 478.477,238.713 477.5,241.5C 477.5,238.167 477.5,234.833 477.5,231.5C 479.415,231.216 481.081,231.549 482.5,232.5 Z"/></g>
<g><path style="opacity:1" fill="#e2c8c5" d="M 196.5,240.5 C 197.043,240.56 197.376,240.893 197.5,241.5C 194.691,242.8 192.024,242.8 189.5,241.5C 192.059,241.802 194.393,241.468 196.5,240.5 Z"/></g>
<g><path style="opacity:1" fill="#e1c5c2" d="M 257.5,240.5 C 258.043,240.56 258.376,240.893 258.5,241.5C 256.027,242.797 253.693,242.797 251.5,241.5C 253.735,241.795 255.735,241.461 257.5,240.5 Z"/></g>
<g><path style="opacity:1" fill="#e1c6c4" d="M 343.5,240.5 C 345.726,241.756 348.059,241.756 350.5,240.5C 349.666,241.748 348.333,242.415 346.5,242.5C 345.167,242.167 343.833,241.833 342.5,241.5C 342.624,240.893 342.957,240.56 343.5,240.5 Z"/></g>
<g><path style="opacity:1" fill="#e0bdbb" d="M 373.5,239.5 C 374.404,240.209 374.737,241.209 374.5,242.5C 371.941,242.802 369.607,242.468 367.5,241.5C 370.082,241.975 372.082,241.308 373.5,239.5 Z"/></g>
<g><path style="opacity:1" fill="#e1c4c1" d="M 413.5,236.5 C 413.5,238.167 413.5,239.833 413.5,241.5C 421.833,241.5 430.167,241.5 438.5,241.5C 430.016,242.493 421.349,242.826 412.5,242.5C 412.205,240.265 412.539,238.265 413.5,236.5 Z"/></g>
<g><path style="opacity:1" fill="#e1c5c2" d="M 494.5,240.5 C 495.043,240.56 495.376,240.893 495.5,241.5C 492.691,242.8 490.024,242.8 487.5,241.5C 490.059,241.802 492.393,241.468 494.5,240.5 Z"/></g>
</svg>
